<svg height="862" width="720" xmlns="http://www.w3.org/2000/svg">
<rect height="862" fill="#555" width="720"></rect>
<text fill="#7f7" font-family="Courier New" font-size="12" xml:space="preserve">
<tspan x="10" y="26">27 megabytes installed</tspan>
<tspan x="10" y="42"></tspan>
<tspan x="10" y="58">node_modules</tspan>
<tspan x="10" y="74">└─┬ sharp@0.17.3 </tspan>
<tspan x="10" y="90">  ├─┬ caw@2.0.0 </tspan>
<tspan x="10" y="106">  │ ├─┬ get-proxy@1.1.0 </tspan>
<tspan x="10" y="122">  │ │ └─┬ rc@1.2.1 </tspan>
<tspan x="10" y="138">  │ │   ├── deep-extend@0.4.1 </tspan>
<tspan x="10" y="154">  │ │   ├── ini@1.3.4 </tspan>
<tspan x="10" y="170">  │ │   ├── minimist@1.2.0 </tspan>
<tspan x="10" y="186">  │ │   └── strip-json-comments@2.0.1 </tspan>
<tspan x="10" y="202">  │ └── tunnel-agent@0.4.3 </tspan>
<tspan x="10" y="218">  ├─┬ color@1.0.3 </tspan>
<tspan x="10" y="234">  │ ├─┬ color-convert@1.9.0 </tspan>
<tspan x="10" y="250">  │ │ └── color-name@1.1.2 </tspan>
<tspan x="10" y="266">  │ └─┬ color-string@1.5.2 </tspan>
<tspan x="10" y="282">  │   └─┬ simple-swizzle@0.2.2 </tspan>
<tspan x="10" y="298">  │     └── is-arrayish@0.3.1 </tspan>
<tspan x="10" y="314">  ├─┬ got@6.7.1 </tspan>
<tspan x="10" y="330">  │ ├─┬ create-error-class@3.0.2 </tspan>
<tspan x="10" y="346">  │ │ └── capture-stack-trace@1.0.0 </tspan>
<tspan x="10" y="362">  │ ├── duplexer3@0.1.4 </tspan>
<tspan x="10" y="378">  │ ├── get-stream@3.0.0 </tspan>
<tspan x="10" y="394">  │ ├── is-redirect@1.0.0 </tspan>
<tspan x="10" y="410">  │ ├── is-retry-allowed@1.1.0 </tspan>
<tspan x="10" y="426">  │ ├── is-stream@1.1.0 </tspan>
<tspan x="10" y="442">  │ ├── lowercase-keys@1.0.0 </tspan>
<tspan x="10" y="458">  │ ├── safe-buffer@5.0.1 </tspan>
<tspan x="10" y="474">  │ ├── timed-out@4.0.1 </tspan>
<tspan x="10" y="490">  │ ├── unzip-response@2.0.1 </tspan>
<tspan x="10" y="506">  │ └─┬ url-parse-lax@1.0.0 </tspan>
<tspan x="10" y="522">  │   └── prepend-http@1.0.4 </tspan>
<tspan x="10" y="538">  ├── nan@2.6.1 </tspan>
<tspan x="10" y="554">  ├── semver@5.3.0 </tspan>
<tspan x="10" y="570">  └─┬ tar@2.2.1 </tspan>
<tspan x="10" y="586">    ├── block-stream@0.0.9 </tspan>
<tspan x="10" y="602">    ├─┬ fstream@1.0.11 </tspan>
<tspan x="10" y="618">    │ ├── graceful-fs@4.1.11 </tspan>
<tspan x="10" y="634">    │ ├─┬ mkdirp@0.5.1 </tspan>
<tspan x="10" y="650">    │ │ └── minimist@0.0.8 </tspan>
<tspan x="10" y="666">    │ └─┬ rimraf@2.6.1 </tspan>
<tspan x="10" y="682">    │   └─┬ glob@7.1.1 </tspan>
<tspan x="10" y="698">    │     ├── fs.realpath@1.0.0 </tspan>
<tspan x="10" y="714">    │     ├─┬ inflight@1.0.6 </tspan>
<tspan x="10" y="730">    │     │ └── wrappy@1.0.2 </tspan>
<tspan x="10" y="746">    │     ├─┬ minimatch@3.0.3 </tspan>
<tspan x="10" y="762">    │     │ └─┬ brace-expansion@1.1.7 </tspan>
<tspan x="10" y="778">    │     │   ├── balanced-match@0.4.2 </tspan>
<tspan x="10" y="794">    │     │   └── concat-map@0.0.1 </tspan>
<tspan x="10" y="810">    │     ├── once@1.4.0 </tspan>
<tspan x="10" y="826">    │     └── path-is-absolute@1.0.1 </tspan>
<tspan x="10" y="842">    └── inherits@2.0.3</tspan>
</text>
</svg>
